<svg width="14" height="15" viewBox="0 0 14 15" fill="none" xmlns="http://www.w3.org/2000/svg">
<path d="M13.8086 12.6051L11.0824 9.87891C10.9594 9.75586 10.7926 9.6875 10.6176 9.6875H10.1719C10.9266 8.72227 11.375 7.5082 11.375 6.1875C11.375 3.0457 8.8293 0.5 5.6875 0.5C2.5457 0.5 0 3.0457 0 6.1875C0 9.3293 2.5457 11.875 5.6875 11.875C7.0082 11.875 8.22227 11.4266 9.1875 10.6719V11.1176C9.1875 11.2926 9.25586 11.4594 9.37891 11.5824L12.1051 14.3086C12.3621 14.5656 12.7777 14.5656 13.032 14.3086L13.8059 13.5348C14.0629 13.2777 14.0629 12.8621 13.8086 12.6051ZM5.6875 9.6875C3.7543 9.6875 2.1875 8.12344 2.1875 6.1875C2.1875 4.2543 3.75156 2.6875 5.6875 2.6875C7.6207 2.6875 9.1875 4.25156 9.1875 6.1875C9.1875 8.1207 7.62344 9.6875 5.6875 9.6875Z" fill="#666666"/>
</svg>
